<svg width="68" height="68" viewBox="0 0 68 68" fill="none" xmlns="http://www.w3.org/2000/svg">
<path fill-rule="evenodd" clip-rule="evenodd" d="M33.9999 1.00005C15.7746 1.00005 1.00006 15.7746 1.00006 33.9999C1.00005 52.2252 15.7746 66.9998 33.9999 66.9998C52.2252 66.9998 66.9998 52.2252 66.9998 33.9999C66.9998 15.7746 52.2252 1.00005 33.9999 1.00005ZM33.9999 5.04334e-05C15.2223 4.87918e-05 5.80197e-05 15.2223 5.63781e-05 33.9999C5.47365e-05 52.7775 15.2223 67.9998 33.9999 67.9998C52.7775 67.9998 67.9998 52.7775 67.9998 33.9999C67.9998 15.2223 52.7775 5.2075e-05 33.9999 5.04334e-05Z" fill="white"/>
<path fill-rule="evenodd" clip-rule="evenodd" d="M23.7726 33.9996L37.7261 20.0461L38.4332 20.7532L25.1868 33.9996L38.4332 47.246L37.7261 47.9531L23.7726 33.9996Z" fill="white"/>
</svg>
