<svg width="68" height="13" viewBox="0 0 68 13" fill="none" xmlns="http://www.w3.org/2000/svg">
<path fill-rule="evenodd" clip-rule="evenodd" d="M10.9623 3.76278C7.44902 4.16573 4.04007 4.97155 1.43069 5.7538L0.569214 2.88015C3.30714 2.05936 6.89306 1.20983 10.6204 0.782322C14.3291 0.356955 18.2847 0.336394 21.7083 1.2539C24.2257 1.92856 26.6159 2.97109 28.9491 4.07207C29.6076 4.3828 30.2581 4.6964 30.9066 5.00902C32.5908 5.82092 34.2612 6.62616 36.0214 7.35719C40.8199 9.35004 46.0427 10.6792 52.6867 9.46266C58.1463 8.46297 62.7661 6.68086 66.3166 4.86383L67.6833 7.53443C63.907 9.467 59.0101 11.3547 53.2271 12.4136C45.8281 13.7684 39.9975 12.2569 34.8707 10.1278C33.0277 9.36233 31.2432 8.50207 29.5338 7.67801C28.9016 7.37323 28.2796 7.07341 27.6688 6.78517C25.3708 5.70081 23.1793 4.75399 20.9317 4.15165C18.025 3.37267 14.4942 3.35769 10.9623 3.76278Z" fill="#47093E"/>
</svg>
