<svg width="68" height="45" viewBox="0 0 68 45" fill="none" xmlns="http://www.w3.org/2000/svg">
<path fill-rule="evenodd" clip-rule="evenodd" d="M10.9623 3.92953C7.44902 4.33248 4.04007 5.13829 1.43069 5.92055L0.569214 3.0469C3.30714 2.22611 6.89306 1.37658 10.6204 0.94907C14.3291 0.523703 18.2847 0.503142 21.7083 1.42065C24.2257 2.09531 26.6159 3.13783 28.9491 4.23882C29.6076 4.54955 30.2581 4.86315 30.9066 5.17577C32.5908 5.98767 34.2612 6.79291 36.0214 7.52393C40.8199 9.51678 46.0427 10.846 52.6867 9.62941C58.1463 8.62972 62.7661 6.84761 66.3166 5.03058L67.6833 7.70118C63.907 9.63375 59.0101 11.5214 53.2271 12.5803C45.8281 13.9352 39.9975 12.4237 34.8707 10.2945C33.0277 9.52908 31.2432 8.66882 29.5338 7.84475C28.9016 7.53998 28.2796 7.24016 27.6688 6.95192C25.3708 5.86756 23.1793 4.92074 20.9317 4.3184C18.025 3.53942 14.4942 3.52444 10.9623 3.92953Z" fill="#47093E"/>
<path fill-rule="evenodd" clip-rule="evenodd" d="M10.9623 19.5487C7.44902 19.9516 4.04007 20.7574 1.43069 21.5397L0.569214 18.666C3.30714 17.8453 6.89306 16.9957 10.6204 16.5682C14.3291 16.1428 18.2847 16.1223 21.7083 17.0398C24.2257 17.7144 26.6159 18.757 28.9491 19.858C29.6076 20.1687 30.2581 20.4823 30.9066 20.7949C32.5908 21.6068 34.2612 22.4121 36.0214 23.1431C40.8199 25.1359 46.0427 26.4651 52.6867 25.2485C58.1463 24.2489 62.7661 22.4667 66.3166 20.6497L67.6833 23.3203C63.907 25.2529 59.0101 27.1406 53.2271 28.1995C45.8281 29.5543 39.9975 28.0428 34.8707 25.9136C33.0277 25.1482 31.2432 24.288 29.5338 23.4639C28.9016 23.1591 28.2796 22.8593 27.6688 22.5711C25.3708 21.4867 23.1793 20.5399 20.9317 19.9375C18.025 19.1586 14.4942 19.1436 10.9623 19.5487Z" fill="#47093E"/>
<path fill-rule="evenodd" clip-rule="evenodd" d="M10.9623 35.1676C7.44902 35.5705 4.04007 36.3763 1.43069 37.1586L0.569214 34.2849C3.30714 33.4641 6.89306 32.6146 10.6204 32.1871C14.3291 31.7617 18.2847 31.7412 21.7083 32.6587C24.2257 33.3333 26.6159 34.3759 28.9491 35.4769C29.6076 35.7876 30.2581 36.1012 30.9066 36.4138C32.5908 37.2257 34.2612 38.0309 36.0214 38.762C40.8199 40.7548 46.0427 42.084 52.6867 40.8674C58.1463 39.8678 62.7661 38.0856 66.3166 36.2686L67.6833 38.9392C63.907 40.8718 59.0101 42.7595 53.2271 43.8184C45.8281 45.1732 39.9975 43.6617 34.8707 41.5325C33.0277 40.7671 31.2432 39.9069 29.5338 39.0828C28.9016 38.778 28.2796 38.4782 27.6688 38.19C25.3708 37.1056 23.1793 36.1588 20.9317 35.5564C18.025 34.7775 14.4942 34.7625 10.9623 35.1676Z" fill="#47093E"/>
</svg>
