<svg width="69" height="69" viewBox="0 0 69 69" fill="none" xmlns="http://www.w3.org/2000/svg">
<path fill-rule="evenodd" clip-rule="evenodd" d="M33.8816 58.4506C47.1251 58.4506 57.8611 47.7146 57.8611 34.4711C57.8611 21.2277 47.1251 10.4917 33.8816 10.4917C20.6381 10.4917 9.90216 21.2277 9.90216 34.4711C9.90216 47.7146 20.6381 58.4506 33.8816 58.4506ZM33.8816 59.4506C47.6774 59.4506 58.8611 48.2669 58.8611 34.4711C58.8611 20.6754 47.6774 9.4917 33.8816 9.4917C20.0858 9.4917 8.90216 20.6754 8.90216 34.4711C8.90216 48.2669 20.0858 59.4506 33.8816 59.4506Z" fill="#590D56"/>
<path fill-rule="evenodd" clip-rule="evenodd" d="M34.529 1.00004V67.9419H33.529V1.00004H34.529Z" fill="#47093E"/>
<path fill-rule="evenodd" clip-rule="evenodd" d="M1.00023 34.5293H67.9421V35.5293H1.00023V34.5293Z" fill="#47093E"/>
</svg>
