<svg width="30" height="30" viewBox="0 0 30 30" fill="none" xmlns="http://www.w3.org/2000/svg">
<path fill-rule="evenodd" clip-rule="evenodd" d="M15 29C22.732 29 29 22.732 29 15C29 7.26801 22.732 1 15 1C7.26801 1 1 7.26801 1 15C1 22.732 7.26801 29 15 29ZM15 30C23.2843 30 30 23.2843 30 15C30 6.71573 23.2843 0 15 0C6.71573 0 0 6.71573 0 15C0 23.2843 6.71573 30 15 30Z" fill="#47093E"/>
<path d="M14.624 10.648C14.24 10.648 13.936 10.536 13.712 10.312C13.488 10.088 13.376 9.80004 13.376 9.44804C13.376 9.04271 13.504 8.70671 13.76 8.44004C14.016 8.17337 14.3573 8.04004 14.784 8.04004C15.2107 8.04004 15.536 8.15737 15.76 8.39204C15.984 8.61604 16.096 8.89871 16.096 9.24004C16.096 9.66671 15.968 10.008 15.712 10.264C15.456 10.52 15.0987 10.648 14.64 10.648H14.624ZM13.776 13.624L12.64 13.32V12.248L15.568 11.896H15.6L16.048 12.216V19.912L17.12 20.04V21H12.656V20.04L13.776 19.896V13.624Z" fill="#47093E"/>
</svg>
