<svg width="42" height="49" viewBox="0 0 42 49" fill="none" xmlns="http://www.w3.org/2000/svg">
<path fill-rule="evenodd" clip-rule="evenodd" d="M36.1081 28.4078C37.9495 25.3865 38.9076 22.7613 38.9076 20.7226C38.9076 10.9347 30.973 3 21.1851 3C11.3972 3 3.46252 10.9347 3.46252 20.7226C3.46252 22.7613 4.42063 25.3865 6.26212 28.4078C8.06398 31.3642 10.5125 34.3801 13.033 37.1234C15.5427 39.8551 18.0623 42.2503 19.9594 43.966C20.4064 44.3702 20.8178 44.7358 21.1851 45.0581C21.5524 44.7358 21.9638 44.3702 22.4108 43.966C24.3079 42.2503 26.8275 39.8551 29.3372 37.1234C31.8576 34.3801 34.3062 31.3642 36.1081 28.4078ZM21.1851 49C21.1851 49 41.9076 32.1673 41.9076 20.7226C41.9076 9.27781 32.6298 0 21.1851 0C9.74033 0 0.462524 9.27781 0.462524 20.7226C0.462524 32.1673 21.1851 49 21.1851 49Z" fill="#47093E"/>
<path fill-rule="evenodd" clip-rule="evenodd" d="M21.5618 17.7424L17.1653 29.1733L14.3652 28.0963L20.1618 13.0254H22.9618L28.7583 28.0963L25.9583 29.1733L21.5618 17.7424Z" fill="#47093E"/>
<path fill-rule="evenodd" clip-rule="evenodd" d="M25.6494 25.1926H17.4739V22.1926H25.6494V25.1926Z" fill="#47093E"/>
</svg>
