<svg width="68" height="81" viewBox="0 0 68 81" fill="none" xmlns="http://www.w3.org/2000/svg">
<path fill-rule="evenodd" clip-rule="evenodd" d="M61.7983 48.623C64.9502 43.4515 66.9617 38.3985 66.9617 33.9808C66.9617 15.766 52.1956 1 33.9808 1C15.766 1 1 15.766 1 33.9808C1 38.3985 3.01145 43.4515 6.1634 48.623C9.30215 53.7727 13.5025 58.9287 17.7268 63.5266C21.9475 68.1206 26.1716 72.1352 29.3421 75.0024C30.9267 76.4354 32.2465 77.5803 33.1691 78.3662C33.4895 78.639 33.7619 78.8686 33.9808 79.0518C34.1997 78.8686 34.4722 78.639 34.7925 78.3662C35.7151 77.5803 37.035 76.4354 38.6196 75.0024C41.7901 72.1352 46.0141 68.1206 50.2349 63.5266C54.4592 58.9287 58.6595 53.7727 61.7983 48.623ZM33.9808 80.3501C33.9808 80.3501 67.9617 52.7479 67.9617 33.9808C67.9617 15.2137 52.7479 0 33.9808 0C15.2137 0 0 15.2137 0 33.9808C0 52.7479 33.9808 80.3501 33.9808 80.3501Z" fill="#47093E"/>
<path fill-rule="evenodd" clip-rule="evenodd" d="M34.5986 23.6348L25.5601 47.1348L24.6268 46.7758L34.1319 22.0625H35.0652L44.5704 46.7758L43.637 47.1348L34.5986 23.6348Z" fill="#47093E"/>
<path fill-rule="evenodd" clip-rule="evenodd" d="M41.3015 39.3512H27.8954V38.3512H41.3015V39.3512Z" fill="#47093E"/>
</svg>
