<svg width="67" height="67" viewBox="0 0 67 67" fill="none" xmlns="http://www.w3.org/2000/svg">
<path fill-rule="evenodd" clip-rule="evenodd" d="M33.5 66C51.4493 66 66 51.4493 66 33.5C66 15.5507 51.4493 1 33.5 1C15.5507 1 1 15.5507 1 33.5C1 51.4493 15.5507 66 33.5 66ZM33.5 67C52.0015 67 67 52.0015 67 33.5C67 14.9985 52.0015 0 33.5 0C14.9985 0 0 14.9985 0 33.5C0 52.0015 14.9985 67 33.5 67Z" fill="#47093E"/>
<path fill-rule="evenodd" clip-rule="evenodd" d="M49.58 33.5002L25.46 19.5745L25.46 47.4258L49.58 33.5002ZM47.58 33.5002L26.46 21.3065L26.46 45.6938L47.58 33.5002Z" fill="#47093E"/>
</svg>
