<svg width="48" height="50" viewBox="0 0 48 50" fill="none" xmlns="http://www.w3.org/2000/svg">
<path fill-rule="evenodd" clip-rule="evenodd" d="M20.5 38C30.165 38 38 30.165 38 20.5C38 10.835 30.165 3 20.5 3C10.835 3 3 10.835 3 20.5C3 30.165 10.835 38 20.5 38ZM20.5 41C31.8218 41 41 31.8218 41 20.5C41 9.17816 31.8218 0 20.5 0C9.17816 0 0 9.17816 0 20.5C0 31.8218 9.17816 41 20.5 41Z" fill="#47093E"/>
<path fill-rule="evenodd" clip-rule="evenodd" d="M35 34L48 47L45.8787 49.1213L32.8787 36.1213L35 34Z" fill="#47093E"/>
</svg>
