<svg width="68" height="58" viewBox="0 0 68 58" fill="none" xmlns="http://www.w3.org/2000/svg">
<path fill-rule="evenodd" clip-rule="evenodd" d="M58 1.50757H67.5V55.0076H66.5V2.50757H58V1.50757Z" fill="#47093E"/>
<path fill-rule="evenodd" clip-rule="evenodd" d="M28.7761 42.1195V14.8956C28.7761 7.22547 22.5582 1.00757 14.8881 1.00757C7.2179 1.00757 1 7.22547 1 14.8956V42.1195C1 49.7897 7.2179 56.0076 14.8881 56.0076C22.5582 56.0076 28.7761 49.7897 28.7761 42.1195ZM14.8881 0.00756836C6.66561 0.00756836 0 6.67318 0 14.8956V42.1195C0 50.342 6.66561 57.0076 14.8881 57.0076C23.1105 57.0076 29.7761 50.342 29.7761 42.1195V14.8956C29.7761 6.67318 23.1105 0.00756836 14.8881 0.00756836Z" fill="#47093E"/>
<path fill-rule="evenodd" clip-rule="evenodd" d="M28.9254 28.0822H0V27.0822H28.9254V28.0822Z" fill="#47093E"/>
<path fill-rule="evenodd" clip-rule="evenodd" d="M54 22.9306L43 33.9306L42.2928 33.2235L53.2928 22.2235L54 22.9306Z" fill="#47093E"/>
<path fill-rule="evenodd" clip-rule="evenodd" d="M43 22.0845L54 33.0845L53.2928 33.7916L42.2928 22.7916L43 22.0845Z" fill="#47093E"/>
</svg>
